<?xml version="1.0" encoding="UTF-8" standalone="no"?><svg xmlns="http://www.w3.org/2000/svg" xmlns:xlink="http://www.w3.org/1999/xlink" contentScriptType="application/ecmascript" contentStyleType="text/css" height="141px" preserveAspectRatio="none" style="width:264px;height:141px;" version="1.1" viewBox="0 0 264 141" width="264px" zoomAndPan="magnify"><defs><filter height="300%" id="f1etjqllcawu2d" width="300%" x="-1" y="-1"><feGaussianBlur result="blurOut" stdDeviation="2.0"/><feColorMatrix in="blurOut" result="blurOut2" type="matrix" values="0 0 0 0 0 0 0 0 0 0 0 0 0 0 0 0 0 0 .4 0"/><feOffset dx="4.0" dy="4.0" in="blurOut2" result="blurOut3"/><feBlend in="SourceGraphic" in2="blurOut3" mode="normal"/></filter></defs><g><!--MD5=[0c8a5ca64e335d28cfe171be9b7a5fa2]
class Ballot--><a href="Ballot.html" target="_top" title="Ballot.html" xlink:actuate="onRequest" xlink:href="Ballot.html" xlink:show="new" xlink:title="Ballot.html" xlink:type="simple"><rect codeLine="5" fill="#FEFECE" filter="url(#f1etjqllcawu2d)" height="104.7754" id="Ballot" style="stroke: #A80036; stroke-width: 1.5;" width="238" x="7" y="7"/><ellipse cx="106.25" cy="23" fill="#ADD1B2" rx="11" ry="11" style="stroke: #A80036; stroke-width: 1.0;"/><path d="M108.7231,29.1431 Q108.1421,29.4419 107.5029,29.5913 Q106.8638,29.7407 106.1582,29.7407 Q103.6514,29.7407 102.3315,28.0889 Q101.0117,26.437 101.0117,23.3159 Q101.0117,20.1865 102.3315,18.5347 Q103.6514,16.8828 106.1582,16.8828 Q106.8638,16.8828 107.5112,17.0322 Q108.1587,17.1816 108.7231,17.4805 L108.7231,20.2031 Q108.0923,19.6221 107.4988,19.3523 Q106.9053,19.0825 106.2744,19.0825 Q104.9297,19.0825 104.2449,20.1492 Q103.5601,21.2158 103.5601,23.3159 Q103.5601,25.4077 104.2449,26.4744 Q104.9297,27.541 106.2744,27.541 Q106.9053,27.541 107.4988,27.2712 Q108.0923,27.0015 108.7231,26.4204 Z "/><text fill="#000000" font-family="sans-serif" font-size="12" lengthAdjust="spacingAndGlyphs" textLength="31" x="126.75" y="27.5352">Ballot</text><line style="stroke: #A80036; stroke-width: 1.5;" x1="8" x2="244" y1="39" y2="39"/><ellipse cx="18" cy="50" fill="#84BE84" rx="3" ry="3" style="stroke: #038048; stroke-width: 1.0;"/><text fill="#000000" font-family="sans-serif" font-size="11" lengthAdjust="spacingAndGlyphs" textLength="69" x="27" y="53.6348">Ballot(String)</text><ellipse cx="18" cy="62.9551" fill="#84BE84" rx="3" ry="3" style="stroke: #038048; stroke-width: 1.0;"/><text fill="#000000" font-family="sans-serif" font-size="11" lengthAdjust="spacingAndGlyphs" textLength="125" x="27" y="66.5898">getOfficeName(): String</text><ellipse cx="18" cy="75.9102" fill="#84BE84" rx="3" ry="3" style="stroke: #038048; stroke-width: 1.0;"/><text fill="#000000" font-family="sans-serif" font-size="11" lengthAdjust="spacingAndGlyphs" textLength="165" x="27" y="79.5449">addCandidate(Candidate): void</text><ellipse cx="18" cy="88.8652" fill="#84BE84" rx="3" ry="3" style="stroke: #038048; stroke-width: 1.0;"/><text fill="#000000" font-family="sans-serif" font-size="11" lengthAdjust="spacingAndGlyphs" textLength="212" x="27" y="92.5">getCandidates(): ArrayList&lt;Candidate&gt;</text><ellipse cx="18" cy="101.8203" fill="#84BE84" rx="3" ry="3" style="stroke: #038048; stroke-width: 1.0;"/><text fill="#000000" font-family="sans-serif" font-size="11" lengthAdjust="spacingAndGlyphs" textLength="137" x="27" y="105.4551">determineWinner(): String</text></a><text fill="#888888" font-family="sans-serif" font-size="10" lengthAdjust="spacingAndGlyphs" textLength="188" x="32" y="128.4434">UMLDoclet 2.0.12, PlantUML 1.2020.16</text><!--MD5=[36e269b016ee7c970feb5f2548081e44]
@startuml
    set namespaceSeparator none
    hide empty fields
    hide empty methods

    class Ballot [[Ballot.html]] {
        +Ballot(String)
        +getOfficeName(): String
        +addCandidate(Candidate): void
        +getCandidates(): ArrayList<Candidate>
        +determineWinner(): String
    }

    center footer UMLDoclet 2.0.12, PlantUML 1.2020.16
@enduml

PlantUML version 1.2020.16(Sun Aug 23 15:20:43 CDT 2020)
(APACHE source distribution)
Java Runtime: Java(TM) SE Runtime Environment
JVM: Java HotSpot(TM) 64-Bit Server VM
Default Encoding: UTF-8
Language: en
Country: US
--></g></svg>