<?xml version="1.0" encoding="UTF-8" standalone="no"?><svg xmlns="http://www.w3.org/2000/svg" xmlns:xlink="http://www.w3.org/1999/xlink" contentScriptType="application/ecmascript" contentStyleType="text/css" height="90px" preserveAspectRatio="none" style="width:200px;height:90px;" version="1.1" viewBox="0 0 200 90" width="200px" zoomAndPan="magnify"><defs><filter height="300%" id="f1ndin9g9r1cvp" width="300%" x="-1" y="-1"><feGaussianBlur result="blurOut" stdDeviation="2.0"/><feColorMatrix in="blurOut" result="blurOut2" type="matrix" values="0 0 0 0 0 0 0 0 0 0 0 0 0 0 0 0 0 0 .4 0"/><feOffset dx="4.0" dy="4.0" in="blurOut2" result="blurOut3"/><feBlend in="SourceGraphic" in2="blurOut3" mode="normal"/></filter></defs><g><!--MD5=[9f5ff60652ed140148dfc90c8b93adb0]
class BallotReader--><a href="BallotReader.html" target="_top" title="BallotReader.html" xlink:actuate="onRequest" xlink:href="BallotReader.html" xlink:show="new" xlink:title="BallotReader.html" xlink:type="simple"><rect codeLine="5" fill="#FEFECE" filter="url(#f1ndin9g9r1cvp)" height="52.9551" id="BallotReader" style="stroke: #A80036; stroke-width: 1.5;" width="154" x="17" y="7"/><ellipse cx="54.05" cy="23" fill="#ADD1B2" rx="11" ry="11" style="stroke: #A80036; stroke-width: 1.0;"/><path d="M56.5231,29.1431 Q55.9421,29.4419 55.3029,29.5913 Q54.6638,29.7407 53.9582,29.7407 Q51.4514,29.7407 50.1315,28.0889 Q48.8117,26.437 48.8117,23.3159 Q48.8117,20.1865 50.1315,18.5347 Q51.4514,16.8828 53.9582,16.8828 Q54.6638,16.8828 55.3112,17.0322 Q55.9587,17.1816 56.5231,17.4805 L56.5231,20.2031 Q55.8923,19.6221 55.2988,19.3523 Q54.7053,19.0825 54.0744,19.0825 Q52.7297,19.0825 52.0449,20.1492 Q51.3601,21.2158 51.3601,23.3159 Q51.3601,25.4077 52.0449,26.4744 Q52.7297,27.541 54.0744,27.541 Q54.7053,27.541 55.2988,27.2712 Q55.8923,27.0015 56.5231,26.4204 Z "/><text fill="#000000" font-family="sans-serif" font-size="12" lengthAdjust="spacingAndGlyphs" textLength="73" x="72.95" y="27.5352">BallotReader</text><line style="stroke: #A80036; stroke-width: 1.5;" x1="18" x2="170" y1="39" y2="39"/><ellipse cx="28" cy="50" fill="#84BE84" rx="3" ry="3" style="stroke: #038048; stroke-width: 1.0;"/><text fill="#000000" font-family="sans-serif" font-size="11" lengthAdjust="spacingAndGlyphs" text-decoration="underline" textLength="128" x="37" y="53.6348">readBallot(String): Ballot</text></a><text fill="#888888" font-family="sans-serif" font-size="10" lengthAdjust="spacingAndGlyphs" textLength="188" x="0" y="76.623">UMLDoclet 2.0.12, PlantUML 1.2020.16</text><!--MD5=[d7ddf7ef2342cf835ba2f7eb66d95221]
@startuml
    set namespaceSeparator none
    hide empty fields
    hide empty methods

    class BallotReader [[BallotReader.html]] {
        {static} +readBallot(String): Ballot
    }

    center footer UMLDoclet 2.0.12, PlantUML 1.2020.16
@enduml

PlantUML version 1.2020.16(Sun Aug 23 15:20:43 CDT 2020)
(APACHE source distribution)
Java Runtime: Java(TM) SE Runtime Environment
JVM: Java HotSpot(TM) 64-Bit Server VM
Default Encoding: UTF-8
Language: en
Country: US
--></g></svg>