<?xml version="1.0" encoding="UTF-8" standalone="no"?><svg xmlns="http://www.w3.org/2000/svg" xmlns:xlink="http://www.w3.org/1999/xlink" contentScriptType="application/ecmascript" contentStyleType="text/css" height="90px" preserveAspectRatio="none" style="width:200px;height:90px;" version="1.1" viewBox="0 0 200 90" width="200px" zoomAndPan="magnify"><defs><filter height="300%" id="f1gpz2v1bci332" width="300%" x="-1" y="-1"><feGaussianBlur result="blurOut" stdDeviation="2.0"/><feColorMatrix in="blurOut" result="blurOut2" type="matrix" values="0 0 0 0 0 0 0 0 0 0 0 0 0 0 0 0 0 0 .4 0"/><feOffset dx="4.0" dy="4.0" in="blurOut2" result="blurOut3"/><feBlend in="SourceGraphic" in2="blurOut3" mode="normal"/></filter></defs><g><!--MD5=[d6c81defe92decc718f5f4433bda857f]
class PerfectCandidate--><a href="PerfectCandidate.html" target="_top" title="PerfectCandidate.html" xlink:actuate="onRequest" xlink:href="PerfectCandidate.html" xlink:show="new" xlink:title="PerfectCandidate.html" xlink:type="simple"><rect codeLine="5" fill="#FEFECE" filter="url(#f1gpz2v1bci332)" height="52.9551" id="PerfectCandidate" style="stroke: #A80036; stroke-width: 1.5;" width="131" x="28.5" y="7"/><ellipse cx="43.5" cy="23" fill="#ADD1B2" rx="11" ry="11" style="stroke: #A80036; stroke-width: 1.0;"/><path d="M45.9731,29.1431 Q45.3921,29.4419 44.7529,29.5913 Q44.1138,29.7407 43.4082,29.7407 Q40.9014,29.7407 39.5815,28.0889 Q38.2617,26.437 38.2617,23.3159 Q38.2617,20.1865 39.5815,18.5347 Q40.9014,16.8828 43.4082,16.8828 Q44.1138,16.8828 44.7612,17.0322 Q45.4087,17.1816 45.9731,17.4805 L45.9731,20.2031 Q45.3423,19.6221 44.7488,19.3523 Q44.1553,19.0825 43.5244,19.0825 Q42.1797,19.0825 41.4949,20.1492 Q40.8101,21.2158 40.8101,23.3159 Q40.8101,25.4077 41.4949,26.4744 Q42.1797,27.541 43.5244,27.541 Q44.1553,27.541 44.7488,27.2712 Q45.3423,27.0015 45.9731,26.4204 Z "/><text fill="#000000" font-family="sans-serif" font-size="12" lengthAdjust="spacingAndGlyphs" textLength="99" x="57.5" y="27.5352">PerfectCandidate</text><line style="stroke: #A80036; stroke-width: 1.5;" x1="29.5" x2="158.5" y1="39" y2="39"/><ellipse cx="39.5" cy="50" fill="#84BE84" rx="3" ry="3" style="stroke: #038048; stroke-width: 1.0;"/><text fill="#000000" font-family="sans-serif" font-size="11" lengthAdjust="spacingAndGlyphs" text-decoration="underline" textLength="103" x="48.5" y="53.6348">main(String[]): void</text></a><text fill="#888888" font-family="sans-serif" font-size="10" lengthAdjust="spacingAndGlyphs" textLength="188" x="0" y="76.623">UMLDoclet 2.0.12, PlantUML 1.2020.16</text><!--MD5=[36fa67a07a9b82bf013fa4dc45b6cf04]
@startuml
    set namespaceSeparator none
    hide empty fields
    hide empty methods

    class PerfectCandidate [[PerfectCandidate.html]] {
        {static} +main(String[]): void
    }

    center footer UMLDoclet 2.0.12, PlantUML 1.2020.16
@enduml

PlantUML version 1.2020.16(Sun Aug 23 15:20:43 CDT 2020)
(APACHE source distribution)
Java Runtime: Java(TM) SE Runtime Environment
JVM: Java HotSpot(TM) 64-Bit Server VM
Default Encoding: UTF-8
Language: en
Country: US
--></g></svg>