<?xml version="1.0" encoding="UTF-8" standalone="no"?><svg xmlns="http://www.w3.org/2000/svg" xmlns:xlink="http://www.w3.org/1999/xlink" contentScriptType="application/ecmascript" contentStyleType="text/css" height="90px" preserveAspectRatio="none" style="width:221px;height:90px;" version="1.1" viewBox="0 0 221 90" width="221px" zoomAndPan="magnify"><defs><filter height="300%" id="ffb2pk9qtj6fq" width="300%" x="-1" y="-1"><feGaussianBlur result="blurOut" stdDeviation="2.0"/><feColorMatrix in="blurOut" result="blurOut2" type="matrix" values="0 0 0 0 0 0 0 0 0 0 0 0 0 0 0 0 0 0 .4 0"/><feOffset dx="4.0" dy="4.0" in="blurOut2" result="blurOut3"/><feBlend in="SourceGraphic" in2="blurOut3" mode="normal"/></filter></defs><g><!--MD5=[9a99b918ce66743a492f6802afb57059]
class ResultWriter--><a href="ResultWriter.html" target="_top" title="ResultWriter.html" xlink:actuate="onRequest" xlink:href="ResultWriter.html" xlink:show="new" xlink:title="ResultWriter.html" xlink:type="simple"><rect codeLine="5" fill="#FEFECE" filter="url(#ffb2pk9qtj6fq)" height="52.9551" id="ResultWriter" style="stroke: #A80036; stroke-width: 1.5;" width="195" x="7" y="7"/><ellipse cx="65.75" cy="23" fill="#ADD1B2" rx="11" ry="11" style="stroke: #A80036; stroke-width: 1.0;"/><path d="M68.2231,29.1431 Q67.6421,29.4419 67.0029,29.5913 Q66.3638,29.7407 65.6582,29.7407 Q63.1514,29.7407 61.8315,28.0889 Q60.5117,26.437 60.5117,23.3159 Q60.5117,20.1865 61.8315,18.5347 Q63.1514,16.8828 65.6582,16.8828 Q66.3638,16.8828 67.0112,17.0322 Q67.6587,17.1816 68.2231,17.4805 L68.2231,20.2031 Q67.5923,19.6221 66.9988,19.3523 Q66.4053,19.0825 65.7744,19.0825 Q64.4297,19.0825 63.7449,20.1492 Q63.0601,21.2158 63.0601,23.3159 Q63.0601,25.4077 63.7449,26.4744 Q64.4297,27.541 65.7744,27.541 Q66.4053,27.541 66.9988,27.2712 Q67.5923,27.0015 68.2231,26.4204 Z "/><text fill="#000000" font-family="sans-serif" font-size="12" lengthAdjust="spacingAndGlyphs" textLength="69" x="86.25" y="27.5352">ResultWriter</text><line style="stroke: #A80036; stroke-width: 1.5;" x1="8" x2="201" y1="39" y2="39"/><ellipse cx="18" cy="50" fill="#84BE84" rx="3" ry="3" style="stroke: #038048; stroke-width: 1.0;"/><text fill="#000000" font-family="sans-serif" font-size="11" lengthAdjust="spacingAndGlyphs" text-decoration="underline" textLength="169" x="27" y="53.6348">writeResults(String, Ballot): void</text></a><text fill="#888888" font-family="sans-serif" font-size="10" lengthAdjust="spacingAndGlyphs" textLength="188" x="10.5" y="76.623">UMLDoclet 2.0.12, PlantUML 1.2020.16</text><!--MD5=[264a411cece88ed7c059d7103fe48a38]
@startuml
    set namespaceSeparator none
    hide empty fields
    hide empty methods

    class ResultWriter [[ResultWriter.html]] {
        {static} +writeResults(String, Ballot): void
    }

    center footer UMLDoclet 2.0.12, PlantUML 1.2020.16
@enduml

PlantUML version 1.2020.16(Sun Aug 23 15:20:43 CDT 2020)
(APACHE source distribution)
Java Runtime: Java(TM) SE Runtime Environment
JVM: Java HotSpot(TM) 64-Bit Server VM
Default Encoding: UTF-8
Language: en
Country: US
--></g></svg>